<svg width="18" height="18" viewBox="0 0 18 18" fill="none" xmlns="http://www.w3.org/2000/svg">
<path d="M10.3697 10.139L12.8709 7.63777C15.2828 5.22587 16.2357 3.14152 16.0868 0.640288C16.057 0.312746 15.789 0.0447575 15.4615 0.014981C12.9603 -0.133902 10.8461 0.818947 8.464 3.23085L5.933 5.7023H3.134C2.95535 5.7023 2.77669 5.76185 2.65758 5.91073L1.28786 7.28045C1.04965 7.51866 0.930542 7.81643 0.930542 8.17375C0.930542 8.50129 1.04965 8.82883 1.28786 9.06704L2.53847 10.3177C2.44914 10.3772 2.33004 10.4665 2.27049 10.5559C1.52607 11.2407 1.13898 13.5633 1.04965 14.2482C1.01987 14.4566 1.07942 14.665 1.22831 14.8139C1.34741 14.933 1.52607 15.0223 1.70473 15.0223C1.73451 15.0223 1.76428 15.0223 1.79406 15.0223C2.47892 14.933 4.80149 14.5459 5.5459 13.8015C5.63523 13.7122 5.72456 13.6229 5.78411 13.5335L7.4516 15.201C7.57071 15.3201 7.74937 15.4094 7.92802 15.4094C8.10668 15.4094 8.25557 15.3499 8.40445 15.201L8.73199 14.8735C8.99998 14.6055 8.99998 14.1886 8.73199 13.9206C8.52356 13.7122 8.19601 13.6526 7.92802 13.8015L2.30026 8.14397L3.40199 7.04224H6.20099C6.37965 7.04224 6.5583 6.98269 6.67741 6.8338L9.3573 4.15392C11.6501 1.86113 13.3176 1.35492 14.7171 1.32515C14.6873 2.72464 14.1811 4.39213 11.8883 6.68492L9.20842 9.36481C9.08931 9.48392 8.99998 9.66257 8.99998 9.84123V10.139C8.99998 10.4963 9.29775 10.8239 9.68484 10.8239C10.0719 10.8239 10.3697 10.4963 10.3697 10.139ZM4.62283 12.8487C4.4144 13.0571 3.49132 13.3549 2.53847 13.5335C2.71713 12.5807 3.0149 11.6874 3.22333 11.4492C3.31266 11.3598 3.43177 11.3003 3.55088 11.2407L4.83127 12.5211C4.77171 12.6402 4.71216 12.7593 4.62283 12.8487Z" fill="white"/>
<path d="M17.0695 14.1886C17.0695 12.1042 15.3722 10.3772 13.2581 10.3772C11.1439 10.3772 9.47644 12.0745 9.47644 14.1886C9.47644 16.3027 11.1737 18 13.2878 18C14.2705 18 15.1638 17.6129 15.8486 17.0174C15.8784 16.9876 15.9082 16.9876 15.9082 16.9578C16.6228 16.2432 17.0695 15.2605 17.0695 14.1886ZM13.1985 11.7171L12.9901 12.3424C12.9007 12.6402 12.5732 12.8189 12.2754 12.7295L11.4417 12.5509C11.8586 12.0447 12.4839 11.7469 13.1985 11.7171ZM10.8462 13.7717L11.9479 14.0397C12.0968 14.0695 12.2457 14.0993 12.3945 14.0993C13.2283 14.0993 13.9727 13.5633 14.2407 12.7593L14.4789 12.0447C15.2233 12.4616 15.7295 13.2655 15.7295 14.1886C15.7295 14.6055 15.6402 14.9926 15.4615 15.3201C15.2233 15.1117 14.9553 14.9628 14.6278 14.9032C14.0025 14.7543 13.3176 14.933 12.8412 15.3797L11.8883 16.2729C11.2333 15.8263 10.7866 15.0819 10.7866 14.2184C10.8164 14.0397 10.8164 13.8908 10.8462 13.7717ZM14.5384 16.3027C14.2109 16.4814 13.8536 16.6005 13.4665 16.6303L13.794 16.3325C13.9429 16.1836 14.1514 16.1538 14.33 16.1836C14.3896 16.2134 14.4789 16.2432 14.5384 16.3027Z" fill="white"/>
</svg>
